<?xml version="1.0" encoding="utf-8"?>
<!-- Generator: Adobe Illustrator 21.1.0, SVG Export Plug-In . SVG Version: 6.00 Build 0)  -->
<svg version="1.1" id="Color" xmlns="http://www.w3.org/2000/svg" xmlns:xlink="http://www.w3.org/1999/xlink" x="0px" y="0px"
	 viewBox="0 0 404 404" style="enable-background:new 0 0 404 404;" xml:space="preserve">
<style type="text/css">
	.st0{opacity:0.7;}
	.st1{fill:#167F39;stroke:#FFFFFF;stroke-width:2;stroke-miterlimit:10;}
	.st2{fill:#45BF55;stroke:#FFFFFF;stroke-width:2;stroke-miterlimit:10;}
	.st3{fill:#FFFFFF;stroke:#FFFFFF;stroke-width:2;stroke-miterlimit:10;}
	.st4{opacity:0.9;}
	.st5{fill:none;stroke:#000000;stroke-width:2;stroke-miterlimit:10;}
</style>
<title>icon_colored</title>
<g id="Filled_in" class="st0">
	<path class="st1" d="M12,66.4c1.8-2.2,18-22.5,19.8-24.3c1.3-1.8,4-3.2,6.8-0.9c3.6,2.7,22,27.5,25.2,31.5l1.9,2.6
		c-1.4,1.8-11,13.4-12.4,15.1c-1-0.3-2-0.6-3-1.1c-4.5-1.8-33.3-14-36.5-16.6C9.7,70,12,66.4,12,66.4z"/>
	<path class="st1" d="M72.2,270.1c-4.5,0.9-8.1,1.8-11.7,1.8c-9.9,0-19.3-1.4-28.3-5.4C21.3,262,15,253,9.6,243.1
		c-9-17.5-10.3-36.5-6.8-55.8c4.1-22.5,13.5-43.2,25.7-62.5c15.3-23.9,33.8-46.4,53.1-67.9c14-15.8,29.2-29.2,47.3-40
		C145,6.9,163,0.6,182.4,1.1c14,0.4,26.6,3.6,37.8,12.6c9.9,8.1,14.4,18.9,17.1,31c0.9,4,2.7,10.8,3.1,15.8"/>
	<path class="st2" d="M262.5,73.5c-1.4-0.9-1.8-1.4-3.1-2.2c-6.3-4-11.7-7.6-14.4-9.4c-6.3-3.2-14-6.3-20.2-7.2
		c-12.6-1.8-30.6,1.8-41.9,8.1c-26.6,14.4-41.4,29.7-56.7,47.2c-20.7,23.4-40.5,50-54,78.8c-9.4,20.2-13.5,32-10.4,54.5
		c0.9,6.8,5,18.9,8.1,23.4c4,5.9,9.9,10.8,17.6,17.5c23,19.8,45.4,40.5,70.7,58c14.9,10.4,30.6,19.4,47.7,25.6
		c21.6,7.6,44.1,10.8,67.1,10.4c23.4-0.5,45.9-5,67-14.4c17.6-8.1,36.9-12.1,56.2-11.7h3.6c-1.8-9.5-5-18.5-5.4-27
		c-0.9-19.4-0.5-38.7,2.7-58c1.8-12.1,3.6-24.8,1.8-37.4c-4-27.5-17.5-50.9-35.1-71.6c-14.9-17.5-34.6-39.2-57.6-54.9
		c-0.5-0.5-1.1-1-1.8-1.4"/>
</g>
<path id="C" class="st3" d="M293.1,325.9c-24.6,1.4-49.1-3.7-71.1-14.9c-36.9-18.9-58.5-49.5-64.4-90.9c-3.1-23-1.4-45.5,6.8-67
	c9.9-27.5,27.9-48.6,53.1-63c20.7-11.7,43.2-17.6,66.6-19.8c33.3-2.7,65.2,3.6,96.8,14.9c2.7,0.9,4,2.2,3.1,5.9
	c-3.1,14.9-6.3,29.7-9,44.6c-0.5,3.1-1.8,4-5,4c-8.5,0-8.5,0-12.1-7.6c-8.5-19.8-24.3-28.8-45-30.1c-11.2-0.9-22.5,0-32.9,5.4
	c-14.4,7.2-23.9,18.4-30.1,32.8c-6.3,13.9-8.5,28.8-9.5,43.6c-1.4,20.7,0,41,5.4,60.8c4,15.3,11.2,28.4,23.9,38.2
	c13,9.9,27.9,12.1,43.2,11.2c23-1.4,41.4-12.6,57.6-27.5c4.5-4,7.2-0.5,10.8,0.9c3.1,1.4,2.7,3.6,2.2,6.8c-3.1,10.8-5.9,21.6-9,32.4
	c-0.9,3.1-2.2,5-5.4,5.9c-19.4,6.3-38.2,12.1-58.5,13.5C304.8,326.4,299,325.9,293.1,325.9z"/>
<g id="Border" class="st4">
	<path class="st5" d="M12,66.4c1.8-2.2,18-22.5,19.8-24.3c1.3-1.8,4-3.2,6.8-0.9c3.6,2.7,22,27.5,25.2,31.5l1.9,2.6
		c-1.4,1.8-11,13.4-12.4,15.1c-1-0.3-2-0.6-3-1.1c-4.5-1.8-33.3-14-36.5-16.6C9.7,70,12,66.4,12,66.4z"/>
	<path class="st5" d="M262.5,73.5c-1.4-0.9-1.8-1.4-3.1-2.2c-6.3-4-11.7-7.6-14.4-9.4c-6.3-3.2-14-6.3-20.2-7.2
		c-12.6-1.8-30.6,1.8-41.9,8.1c-26.6,14.4-41.4,29.7-56.7,47.2c-20.7,23.4-40.5,50-54,78.8c-9.4,20.2-13.5,32-10.4,54.5
		c0.9,6.8,5,18.9,8.1,23.4c4,5.9,9.9,10.8,17.6,17.5c23,19.8,45.4,40.5,70.7,58c14.9,10.4,30.6,19.4,47.7,25.6
		c21.6,7.6,44.1,10.8,67.1,10.4c23.4-0.5,45.9-5,67-14.4c17.6-8.1,36.9-12.1,56.2-11.7h3.6c-1.8-9.5-5-18.5-5.4-27
		c-0.9-19.4-0.5-38.7,2.7-58c1.8-12.1,3.6-24.8,1.8-37.4c-4-27.5-17.5-50.9-35.1-71.6c-14.9-17.5-34.6-39.2-57.6-54.9
		c-0.5-0.5-1.1-1-1.8-1.4"/>
	<path class="st5" d="M72.2,270.1c-4.5,0.9-8.1,1.8-11.7,1.8c-9.9,0-19.3-1.4-28.3-5.4C21.3,262,15,253,9.6,243.1
		c-9-17.5-10.3-36.5-6.8-55.8c4.1-22.5,13.5-43.2,25.7-62.5c15.3-23.9,33.8-46.4,53.1-67.9c14-15.8,29.2-29.2,47.3-40
		C145,6.9,163,0.6,182.4,1.1c14,0.4,26.6,3.6,37.8,12.6c9.9,8.1,14.4,18.9,17.1,31c0.9,4,2.7,10.8,3.1,15.8"/>
</g>
<path id="C-2" class="st3" d="M293.1,325.9c-24.6,1.4-49.1-3.7-71.1-14.9c-36.9-18.9-58.5-49.5-64.4-90.9c-3.1-23-1.4-45.5,6.8-67
	c9.9-27.5,27.9-48.6,53.1-63c20.7-11.7,43.2-17.6,66.6-19.8c33.3-2.7,65.2,3.6,96.8,14.9c2.7,0.9,4,2.2,3.1,5.9
	c-3.1,14.9-6.3,29.7-9,44.6c-0.5,3.1-1.8,4-5,4c-8.5,0-8.5,0-12.1-7.6c-8.5-19.8-24.3-28.8-45-30.1c-11.2-0.9-22.5,0-32.9,5.4
	c-14.4,7.2-23.9,18.4-30.1,32.8c-6.3,13.9-8.5,28.8-9.5,43.6c-1.4,20.7,0,41,5.4,60.8c4,15.3,11.2,28.4,23.9,38.2
	c13,9.9,27.9,12.1,43.2,11.2c23-1.4,41.4-12.6,57.6-27.5c4.5-4,7.2-0.5,10.8,0.9c3.1,1.4,2.7,3.6,2.2,6.8c-3.1,10.8-5.9,21.6-9,32.4
	c-0.9,3.1-2.2,5-5.4,5.9c-19.4,6.3-38.2,12.1-58.5,13.5C304.8,326.4,299,325.9,293.1,325.9z"/>
</svg>
