<svg id="Color" xmlns="http://www.w3.org/2000/svg" viewBox="0 0 404 404"><defs><style>.cls-1{opacity:0.7;padding:3px;box-sizing:border-box;}.cls-2{fill:#167f39;}.cls-2,.cls-3,.cls-4{stroke:#fff;}.cls-2,.cls-3,.cls-4,.cls-6{stroke-miterlimit:10;stroke-width:2px;}.cls-3{fill:#45bf55;}.cls-5{opacity:0.9;}.cls-6{fill:none;stroke:#000;}</style></defs><title>icon_colored</title><g id="Filled_in" data-name="Filled in" class="cls-1"><path class="cls-2" d="M82.47,132.49c1.8-2.25,18-22.5,19.8-24.3,1.35-1.8,4-3.15,6.75-.9,3.6,2.7,22,27.45,25.2,31.5l1.85,2.58c-1.35,1.8-11,13.37-12.37,15.15a18.81,18.81,0,0,1-3-1.08c-4.5-1.8-33.3-14-36.45-16.65C80.22,136.09,82.47,132.49,82.47,132.49Z" transform="translate(-70.52 -66.12)"/><path class="cls-2" d="M142.67,336.24c-4.5.9-8.1,1.8-11.7,1.8-9.9,0-19.35-1.35-28.35-5.4-10.8-4.5-17.1-13.5-22.5-23.4-9-17.55-10.35-36.45-6.75-55.8,4.05-22.5,13.5-43.2,25.65-62.55,15.3-23.85,33.75-46.35,53.1-67.95,14-15.75,29.25-29.25,47.25-40,16.2-9.9,34.2-16.2,53.55-15.75,13.95.45,26.55,3.6,37.8,12.6,9.9,8.1,14.4,18.9,17.1,31.05.9,4,2.7,10.8,3.15,15.75" transform="translate(-70.52 -66.12)"/><path class="cls-3" d="M333,139.59c-1.35-.9-1.8-1.35-3.15-2.25-6.3-4-11.7-7.65-14.4-9.45-6.3-3.15-13.95-6.3-20.25-7.2-12.6-1.8-30.6,1.8-41.85,8.1-26.55,14.4-41.4,29.7-56.7,47.25-20.7,23.4-40.5,50-54,78.75-9.45,20.25-13.5,31.95-10.35,54.45.9,6.75,5,18.9,8.1,23.4,4,5.85,9.9,10.8,17.55,17.55,23,19.8,45.45,40.5,70.65,58.05,14.85,10.35,30.6,19.35,47.7,25.65,21.6,7.65,44.1,10.8,67.05,10.35,23.4-.45,45.9-4.95,67.05-14.4a127.57,127.57,0,0,1,56.25-11.7h3.6c-1.8-9.45-4.95-18.45-5.4-27-.9-19.35-.45-38.7,2.7-58.05,1.8-12.15,3.6-24.75,1.8-37.35-4.05-27.45-17.55-50.85-35.1-71.55-14.85-17.55-34.65-39.15-57.6-54.9a8.4,8.4,0,0,0-1.8-1.35" transform="translate(-70.52 -66.12)"/></g><path id="C" class="cls-4" d="M363.62,392a138.89,138.89,0,0,1-71.1-14.85c-36.9-18.9-58.5-49.5-64.35-90.9-3.15-22.95-1.35-45.45,6.75-67,9.9-27.45,27.9-48.6,53.1-63,20.7-11.7,43.2-17.55,66.6-19.8,33.3-2.7,65.25,3.6,96.75,14.85,2.7.9,4.05,2.25,3.15,5.85-3.15,14.85-6.3,29.7-9,44.55-.45,3.15-1.8,4.05-4.95,4.05-8.55,0-8.55,0-12.15-7.65-8.55-19.8-24.3-28.8-45-30.15-11.25-.9-22.5,0-32.85,5.4-14.4,7.2-23.85,18.45-30.15,32.85-6.3,13.95-8.55,28.8-9.45,43.65-1.35,20.7,0,41,5.4,60.75,4.05,15.3,11.25,28.35,23.85,38.25,13.05,9.9,27.9,12.15,43.2,11.25,22.95-1.35,41.4-12.6,57.6-27.45,4.5-4.05,7.2-.45,10.8.9,3.15,1.35,2.7,3.6,2.25,6.75-3.15,10.8-5.85,21.6-9,32.4-.9,3.15-2.25,4.95-5.4,5.85-19.35,6.3-38.25,12.15-58.5,13.5C375.32,392.49,369.47,392,363.62,392Z" transform="translate(-70.52 -66.12)"/><g id="Border" class="cls-5"><path class="cls-6" d="M82.47,132.49c1.8-2.25,18-22.5,19.8-24.3,1.35-1.8,4-3.15,6.75-.9,3.6,2.7,22,27.45,25.2,31.5l1.85,2.58c-1.35,1.8-11,13.37-12.37,15.15a18.81,18.81,0,0,1-3-1.08c-4.5-1.8-33.3-14-36.45-16.65C80.22,136.09,82.47,132.49,82.47,132.49Z" transform="translate(-70.52 -66.12)"/><path class="cls-6" d="M333,139.59c-1.35-.9-1.8-1.35-3.15-2.25-6.3-4-11.7-7.65-14.4-9.45-6.3-3.15-13.95-6.3-20.25-7.2-12.6-1.8-30.6,1.8-41.85,8.1-26.55,14.4-41.4,29.7-56.7,47.25-20.7,23.4-40.5,50-54,78.75-9.45,20.25-13.5,31.95-10.35,54.45.9,6.75,5,18.9,8.1,23.4,4,5.85,9.9,10.8,17.55,17.55,23,19.8,45.45,40.5,70.65,58.05,14.85,10.35,30.6,19.35,47.7,25.65,21.6,7.65,44.1,10.8,67.05,10.35,23.4-.45,45.9-4.95,67.05-14.4a127.57,127.57,0,0,1,56.25-11.7h3.6c-1.8-9.45-4.95-18.45-5.4-27-.9-19.35-.45-38.7,2.7-58.05,1.8-12.15,3.6-24.75,1.8-37.35-4.05-27.45-17.55-50.85-35.1-71.55-14.85-17.55-34.65-39.15-57.6-54.9a8.4,8.4,0,0,0-1.8-1.35" transform="translate(-70.52 -66.12)"/><path class="cls-6" d="M142.67,336.24c-4.5.9-8.1,1.8-11.7,1.8-9.9,0-19.35-1.35-28.35-5.4-10.8-4.5-17.1-13.5-22.5-23.4-9-17.55-10.35-36.45-6.75-55.8,4.05-22.5,13.5-43.2,25.65-62.55,15.3-23.85,33.75-46.35,53.1-67.95,14-15.75,29.25-29.25,47.25-40,16.2-9.9,34.2-16.2,53.55-15.75,13.95.45,26.55,3.6,37.8,12.6,9.9,8.1,14.4,18.9,17.1,31.05.9,4,2.7,10.8,3.15,15.75" transform="translate(-70.52 -66.12)"/></g><path id="C-2" data-name="C" class="cls-6" d="M363.62,392a138.89,138.89,0,0,1-71.1-14.85c-36.9-18.9-58.5-49.5-64.35-90.9-3.15-22.95-1.35-45.45,6.75-67,9.9-27.45,27.9-48.6,53.1-63,20.7-11.7,43.2-17.55,66.6-19.8,33.3-2.7,65.25,3.6,96.75,14.85,2.7.9,4.05,2.25,3.15,5.85-3.15,14.85-6.3,29.7-9,44.55-.45,3.15-1.8,4.05-4.95,4.05-8.55,0-8.55,0-12.15-7.65-8.55-19.8-24.3-28.8-45-30.15-11.25-.9-22.5,0-32.85,5.4-14.4,7.2-23.85,18.45-30.15,32.85-6.3,13.95-8.55,28.8-9.45,43.65-1.35,20.7,0,41,5.4,60.75,4.05,15.3,11.25,28.35,23.85,38.25,13.05,9.9,27.9,12.15,43.2,11.25,22.95-1.35,41.4-12.6,57.6-27.45,4.5-4.05,7.2-.45,10.8.9,3.15,1.35,2.7,3.6,2.25,6.75-3.15,10.8-5.85,21.6-9,32.4-.9,3.15-2.25,4.95-5.4,5.85-19.35,6.3-38.25,12.15-58.5,13.5C375.32,392.49,369.47,392,363.62,392Z" transform="translate(-70.52 -66.12)"/></svg>
